/* XPM */
static char *_96c39b92abd4f8fa9a21a668c1dd1aeKohm9hsmRRg9vIMa[] = {
/* columns rows colors chars-per-pixel */
"42 42 221 2 ",
"   c #DEE5E5",
".  c #DCE3E3",
"X  c #D6DEDF",
"o  c #D0D9DB",
"O  c #CAD4D6",
"+  c #C4CED2",
"@  c #C0CBCF",
"#  c #C6D0D3",
"$  c #CCD5D7",
"%  c #D1DADC",
"&  c #D7DFE0",
"*  c #DDE4E4",
"=  c #CED5D5",
"-  c #A4A9A9",
";  c #7A7D7D",
":  c #4F5252",
">  c #252626",
",  c black",
"<  c #D0D9DA",
"1  c #CAD3D6",
"2  c #C5CED1",
"3  c #C0CACE",
"4  c #D2DADB",
"5  c #D1D9DA",
"6  c #CBD3D5",
"7  c #C1CACD",
"8  c #C7CFD2",
"9  c #D8DFE0",
"0  c #D7DEDE",
"q  c #D1D8DA",
"w  c #CCD3D5",
"e  c #C6CED0",
"r  c #C2CACD",
"t  c #C8CFD1",
"y  c #CDD4D6",
"u  c #D2D8D9",
"i  c #CCD3D4",
"p  c #C7CDD0",
"a  c #C3C9CC",
"s  c #CED4D6",
"d  c #D3DADB",
"f  c #D8DFDF",
"g  c #D7DDDE",
"h  c #CDD3D4",
"j  c #C8CDCF",
"k  c #C4C9CB",
"l  c #C9CED0",
"z  c #CED4D5",
"x  c #D3D9DA",
"c  c #D1D7D8",
"v  c #CCD2D3",
"b  c #C7CCCE",
"n  c #C3C8CA",
"m  c #D5DCDD",
"M  c #CFD6D7",
"N  c #C9D0D2",
"B  c #C3CACC",
"V  c #BEC5C8",
"C  c #C4CBCE",
"Z  c #CAD2D3",
"A  c #D1D8D9",
"S  c #D7DEDF",
"D  c #DBE2E3",
"F  c #D4DCDD",
"G  c #CDD5D7",
"H  c #BFC8CA",
"J  c #B9C3C6",
"K  c #C0C9CC",
"L  c #C8D0D2",
"P  c #CFD7D8",
"I  c #D6DDDE",
"U  c #D3DBDC",
"Y  c #CBD4D6",
"T  c #C3CDCF",
"R  c #BAC5C9",
"E  c #B4C0C4",
"W  c #BCC7CA",
"Q  c #CDD6D7",
"!  c #D5DDDE",
"~  c #DBE2E2",
"^  c #D2DADC",
"/  c #C8D3D5",
"(  c #BFCBCE",
")  c #B6C3C7",
"_  c #AFBDC2",
"`  c #B9C5C9",
"'  c #C2CDCF",
"]  c #CBD5D6",
"[  c #D9E1E1",
"{  c #CFD9DA",
"}  c #C6D1D3",
"|  c #BCC9CC",
" . c #B2C1C5",
".. c #ABBBC0",
"X. c #B5C3C7",
"o. c #D2DBDC",
"O. c #CDD4D4",
"+. c #A3A9A9",
"@. c #797D7D",
"#. c #D8DEDF",
"$. c #C0CDCF",
"%. c #B9C6CA",
"&. c #B1C0C4",
"*. c #B3C1C5",
"=. c #BBC8CB",
"-. c #C2CED1",
";. c #CAD5D6",
":. c #C8CFD0",
">. c #9FA5A5",
",. c #767A7B",
"<. c #4D5050",
"1. c #242525",
"2. c #D2D9DA",
"3. c #D0D8D9",
"4. c #CED6D8",
"5. c #C7D2D4",
"6. c #C1CDD0",
"7. c #AFBEC3",
"8. c #B1BFC4",
"9. c #B7C4C8",
"0. c #C2CACC",
"q. c #9BA1A2",
"w. c #737778",
"e. c #4B4E4E",
"r. c #232425",
"t. c #CDD5D6",
"y. c #CAD1D3",
"u. c #C7D0D2",
"i. c #C4CED0",
"p. c #C1CCCF",
"a. c #BECACD",
"s. c #BAC7CA",
"d. c #B6C4C7",
"f. c #B2C0C4",
"g. c #AEBDC2",
"h. c #ABBABF",
"j. c #AFBEC2",
"k. c #BDC6C8",
"l. c #969D9F",
"z. c #6F7576",
"x. c #494C4D",
"c. c #222324",
"v. c #C6D0D2",
"b. c #C9CFD1",
"n. c #C7CDCF",
"m. c #C3CBCD",
"M. c #BFC9CB",
"N. c #BBC7CA",
"B. c #B8C5C8",
"V. c #B4C3C7",
"C. c #B0BFC3",
"Z. c #ACBCC0",
"A. c #AABABF",
"S. c #ACBCC1",
"D. c #B8C1C4",
"F. c #92999C",
"G. c #6C7274",
"H. c #474A4B",
"J. c #212323",
"K. c #C1CACE",
"L. c #C2C7C9",
"P. c #BDC4C7",
"I. c #B8C2C5",
"U. c #B3BFC3",
"Y. c #AEBDC1",
"T. c #ABBBBF",
"R. c #B2BCC0",
"E. c #8E9698",
"W. c #696F71",
"Q. c #44484A",
"!. c #202222",
"~. c #C4CFD2",
"^. c #C6CED1",
"/. c #C6CBCD",
"(. c #C2C9CC",
"). c #BEC7CA",
"_. c #B9C5C8",
"`. c #B5C3C6",
"'. c #B0BFC4",
"]. c #ADBDC1",
"[. c #B6C0C3",
"{. c #91989B",
"}. c #6B7173",
"|. c #464A4B",
" X c #212223",
".X c #CBD3D6",
"XX c #CDD2D4",
"oX c #CBD1D3",
"OX c #C8D0D1",
"+X c #C5CED0",
"@X c #C2CCCF",
"#X c #BFCACD",
"$X c #BBC8CC",
"%X c #B8C5C9",
"&X c #B4C2C6",
"*X c #BCC5C7",
"=X c #959C9E",
"-X c #6F7475",
";X c #484C4D",
":X c #CCD5D6",
">X c #CAD4D5",
",X c #C8D2D4",
"<X c #C4D0D2",
"1X c #C1C9CB",
"2X c #9AA0A1",
"3X c #727778",
"4X c #4A4D4E",
"5X c #232424",
"6X c #D4DCDC",
"7X c #D1DADB",
"8X c #CED7D9",
"9X c #C6D1D4",
"0X c #C7CECF",
"qX c #9EA4A5",
"wX c #757A7A",
"eX c #4C4F50",
"rX c #CCD3D3",
"tX c #A2A8A8",
"yX c #787C7D",
"uX c #4E5151",
"iX c #BDC7CA",
/* pixels */
"                          . X o O + @ # $ % & *                     = - ; : > , , , ",
"                          . X o O + @ # $ % & *                     = - ; : > , , , ",
"                          . X o O + @ # $ % & *                     = - ; : > , , , ",
"                          . X o O + @ # $ % & *                     = - ; : > , , , ",
"                          . X o O + @ # $ % & *                     = - ; : > , , , ",
"                          . X o O + @ # $ % & *                     = - ; : > , , , ",
"                          . X o O + @ # $ % & *                     = - ; : > , , , ",
"                          . X o O + @ # $ % & *                     = - ; : > , , , ",
"                          . X < 1 2 3 # $ 4 & *                     = - ; : > , , , ",
"                          . X 5 6 2 7 8 $ 4 9 *                     = - ; : > , , , ",
"                          . 0 q w e r t y 4 9 *                     = - ; : > , , , ",
"                          . 0 u i p a t s d f *                     = - ; : > , , , ",
"                          . g u h j k l z x f *                     = - ; : > , , , ",
"                          . g c v b n j h x f *                     = - ; : > , , , ",
"                          . m M N B V C Z A S *                     = - ; : > , , , ",
"                          D F G e H J K L P I *                     = - ; : > , , , ",
"                          D U Y T R E W 2 Q ! *                     = - ; : > , , , ",
"                          ~ ^ / ( ) _ ` ' ] F *                     = - ; : > , , , ",
"* * * * * * * * * * * * * [ { } |  ...X.( / o.. * * * * * * * * * * O.+.@.: > , , , ",
"& & & 9 9 9 f f #.0 I ! F o / $.%.&...*.=.-.;.o.F ! I S f f f 9 9 & :.>.,.<.1., , , ",
"% % % 4 4 d x x 2.3.4.$ O 5.6.=.X.7...8.9.| -./ ] Q P A x x d 4 4 4 0.q.w.e.r., , , ",
"$ $ $ $ t.y s z h y.u.i.p.a.s.d.f.g.h.j.*.9.=.( ' 2 L Z h z s y $ $ k.l.z.x.c., , , ",
"# # # v.8 t b.l n.m.M.N.B.V. .C.g.Z.A.S.j.8.*.X.` W K C j l t t 8 # D.F.G.H.J., , , ",
"@ @ @ K.7 0.a k L.P.I.U.Y.....T.A.A.A.A.h......._ E J V n k a r 7 3 R.E.W.Q.!., , , ",
"~.~.~.2 ^.e n.j /.(.)._.`. .'.j.]...A.Z.g.7.&. .) R H B b j p e 2 2 [.{.}.|. X, , , ",
"O O O .X6 w i XXoXOX+X@X#X$X%X&X8.].A.g.f.X.%.| ( T e N v h i w 6 1 *X=X-X;Xc., , , ",
"o o o < q q u u c M :X>X,X<X( s.&Xj.T.C.d.=.$.} / Y G M c u u q 5 < 1X2X3X4X5X, , , ",
"X X X X X 0 0 g I m 6Xo.7X8X9X( %X'... .s.6./ { ^ U F m g g 0 0 X X 0XqXwXeX1., , , ",
". . . . . . . . . . D D ~ & 8X<X$X ...V.a.5.o [ ~ D D . . . . . . . rXtXyXuX> , , , ",
"                          ~ 7X,X#X`.Y.B.p.O F *                     = - ; : > , , , ",
"                          D o.>X@X_.U.N.i.$ ! *                     = - ; : > , , , ",
"                          D 6X:X+XiXI.M.u.4.I *                     = - ; : > , , , ",
"                          . m M OX(.P.m.y.3.0 *                     = - ; : > , , , ",
"                          . I c oX/.L.n.h 2.#.*                     = - ; : > , , , ",
"                          . g u XXj k l z x f *                     = - ; : > , , , ",
"                          . 0 u i n.a b.s x f *                     = - ; : > , , , ",
"                          . 0 q w e 0.t y d 9 *                     = - ; : > , , , ",
"                          . X q 6 ^.7 8 t.4 9 *                     = - ; : > , , , ",
"                          . X < .X2 K.v.$ 4 9 *                     = - ; : > , , , ",
"                          . X o O + @ # $ % & *                     = - ; : > , , , ",
"                          . X o O + @ # $ % & *                     = - ; : > , , , ",
"                          . X o O + @ # $ % & *                     = - ; : > , , , "
};
